<svg width="8" height="10" viewBox="0 0 8 10" fill="none" xmlns="http://www.w3.org/2000/svg">
<path d="M1.824 5.764C1.824 6.46 1.948 7.06 2.196 7.564C2.444 8.06 2.776 8.436 3.192 8.692C3.608 8.948 4.068 9.076 4.572 9.076H6.984L6.852 10H1.08L1.212 9.076H2.484C1.908 8.78 1.46 8.348 1.14 7.78C0.82 7.212 0.66 6.5 0.66 5.644C0.66 4.78 0.86 4.032 1.26 3.4C1.66 2.76 2.204 2.312 2.892 2.056V0.964H3.732V1.864C3.908 1.848 4.048 1.84 4.152 1.84C4.256 1.84 4.396 1.848 4.572 1.864V0.964H5.412V2.056C6.108 2.304 6.652 2.764 7.044 3.436C7.444 4.108 7.644 4.936 7.644 5.92H6.48C6.48 4.472 6.124 3.52 5.412 3.064V5.92H4.572V2.764C4.396 2.748 4.256 2.74 4.152 2.74C4.048 2.74 3.908 2.748 3.732 2.764V5.92H2.892V3.064C2.18 3.52 1.824 4.42 1.824 5.764Z" fill="#2D3648"/>
</svg>
